<svg width="20" height="20" viewBox="0 0 20 20" fill="none" xmlns="http://www.w3.org/2000/svg">
<path d="M4.82763 2C4.5871 2.23437 4.42573 2.61312 4.28384 2.91085C3.85409 3.81263 3.831 4.81739 4.79025 5.36641C5.9639 6.03815 7.49664 5.81096 8.75823 5.57713C9.93482 5.35906 11.31 4.82247 12.4747 5.35282C13.5659 5.84971 14.2988 6.9954 14.4867 8.15165C14.6925 9.41718 14.4666 10.6635 13.6677 11.6812C12.9334 12.6166 11.8152 13.5485 10.5646 13.5624C9.50889 13.5741 8.33829 13.0422 7.62816 12.2624C7.17197 11.7614 7.13289 11.1993 7.28735 10.5815C7.43492 9.99124 7.95524 9.57029 8.56281 9.51623C9.33404 9.4476 10.1552 9.59929 10.7346 10.1246C11.1818 10.5301 11.5186 11.0554 11.8901 11.5283C12.1648 11.8779 12.4399 12.2226 12.6667 12.6056C13.0625 13.274 13.3692 14.0038 13.6507 14.7264C13.9738 15.5561 14.2594 16.3779 14.5156 17.2296C14.6235 17.5881 14.8216 17.9283 14.9116 18.2883" stroke="#D7D7D7" stroke-width="2.5" stroke-linecap="round"/>
</svg>
