<svg width="34" height="32" viewBox="0 0 34 32" fill="none" xmlns="http://www.w3.org/2000/svg">
<g clip-path="url(#clip0_56_382)">
<path d="M20.5 7.25L22.5 23.7155M20.5 7.25L7.95833 17.25M20.5 7.25C19.6389 6.8068 13.0026 3.73648 7.95833 2.3519M20.5 7.25C21.3611 7.69317 32.0694 13.8746 32.5 14.3178M20.5 7.25L23.5 2.35187M22.5 23.7155L7.95833 17.25M22.5 23.7155L25.6111 29.8291M22.5 23.7155C21.6389 24.1586 10.5417 30.7155 10.5417 30.7155M22.5 23.7155C23.3611 22.8291 32.5 14.3178 32.5 14.3178M7.95833 17.25C7.95833 16.3636 7.11762 8.40944 7.95833 2.3519M7.95833 17.25L1.5 18.3064M7.95833 17.25C8.38889 18.1363 10.5417 30.7155 10.5417 30.7155M7.95833 2.3519C7.09722 3.23824 1.5 17.42 1.5 18.3064M7.95833 2.3519C8.79265 1.85739 22.6389 1.90869 23.5 2.35187M1.5 18.3064C1.93056 19.1927 9.68056 29.8291 10.5417 30.7155M23.5 2.35187C24.3611 2.79505 32.0694 13.4314 32.5 14.3178M32.5 14.3178C32.5 15.2041 26.0417 29.3859 25.6111 29.8291M25.6111 29.8291C24.75 30.2723 11.8333 30.7154 10.5417 30.7155" stroke="#D7D7D7" stroke-width="2.25" stroke-linecap="round" stroke-linejoin="round"/>
<circle cx="17" cy="15.75" r="2" fill="#D7D7D7"/>
</g>
<defs>
<clipPath id="clip0_56_382">
<rect width="34" height="32" fill="white"/>
</clipPath>
</defs>
</svg>
