<svg width="19" height="19" viewBox="0 0 19 19" fill="none" xmlns="http://www.w3.org/2000/svg">
<rect width="12.0105" height="5.00439" transform="matrix(-0.707106 -0.707108 -0.707106 0.707108 14.9614 11.4227)" fill="#7D7D7D"/>
<path d="M2.04525 2.04534L2.92791 6.47064L6.47053 2.92801L2.04525 2.04534Z" fill="#7D7D7D"/>
<rect width="7.00615" height="2.00176" rx="1.00088" transform="matrix(-0.707106 0.707108 0.707106 0.707108 14.9614 10.0073)" fill="#7D7D7D"/>
<rect width="8.00703" height="2.00176" rx="1.00088" transform="matrix(0.707106 0.707108 0.707106 -0.707108 10.3611 11.7766)" fill="#7D7D7D"/>
<circle cx="1.50132" cy="1.50132" r="1.50132" transform="matrix(-0.707106 0.707108 0.707106 0.707108 16.3767 14.2536)" fill="#7D7D7D"/>
<rect width="12.0105" height="5.00439" transform="matrix(0.707106 -0.707108 0.707106 0.707108 3.53857 11.4227)" fill="#ADADAD"/>
<path d="M16.4548 2.04534L15.5721 6.47064L12.0295 2.92801L16.4548 2.04534Z" fill="#ADADAD"/>
<rect width="7.00615" height="2.00176" rx="1.00088" transform="matrix(0.707106 0.707108 -0.707106 0.707108 3.53857 10.0073)" fill="#ADADAD"/>
<rect width="8.00703" height="2.00176" rx="1.00088" transform="matrix(-0.707106 0.707108 -0.707106 -0.707108 8.13892 11.7766)" fill="#ADADAD"/>
<circle cx="1.50132" cy="1.50132" r="1.50132" transform="matrix(0.707106 0.707108 -0.707106 0.707108 2.12329 14.2536)" fill="#ADADAD"/>
</svg>
