<svg width="30" height="30" viewBox="0 0 30 30" fill="none" xmlns="http://www.w3.org/2000/svg">
<circle cx="15" cy="15" r="14" fill="#CBA56B" stroke="#897049" stroke-width="2"/>
<path d="M9.2753 14.3519C11.6135 14.1078 16.8818 13.5975 17.0755 13.9341C17.269 14.2703 14.1998 18.585 12.8183 20.4968C12.4118 21.0592 11.7447 21.3649 11.0553 21.301C9.27025 21.1356 5.9368 20.7862 5.75481 20.47C5.57273 20.1536 6.94883 17.0967 7.70343 15.4727C7.99449 14.8464 8.58992 14.4234 9.2753 14.3519Z" stroke="#7E6743" stroke-width="1.5" stroke-linecap="round"/>
<path d="M22.5762 15.5637C23.2353 17.2082 24.3752 20.1594 24.1965 20.47C24.017 20.7818 20.9574 21.1258 19.2587 21.294C18.5663 21.3626 17.8932 21.057 17.4847 20.4917C16.1014 18.5774 13.0378 14.27 13.2311 13.9341C13.4229 13.6008 18.5917 14.098 20.9626 14.3447C21.6858 14.42 22.3051 14.8872 22.5762 15.5637Z" stroke="#7E6743" stroke-width="1.5" stroke-linecap="round"/>
<path d="M11.9554 8.33533C13.0448 6.94135 15.0266 4.46992 15.3844 4.46992C15.7438 4.46992 17.5747 6.96205 18.5684 8.35275C18.9718 8.9173 19.044 9.64989 18.7619 10.2838C17.8023 12.4397 15.6118 17.2642 15.2247 17.2642C14.8407 17.2642 12.6816 12.5156 11.7105 10.3354C11.4156 9.67318 11.509 8.90656 11.9554 8.33533Z" stroke="#7E6743" stroke-width="1.5" stroke-linecap="round"/>
</svg>
