<svg width="20" height="20" viewBox="0 0 20 20" fill="none" xmlns="http://www.w3.org/2000/svg">
<path fill-rule="evenodd" clip-rule="evenodd" d="M3 4.375C3 4.9375 3 11.125 3.58333 12.25C4.16667 13.375 7.66667 19 10 19C12.3333 19 15.8333 13.375 16.4167 12.25C17 11.125 17 4.9375 17 4.375C17 3.8125 16.4167 2.6875 15.8333 2.125C15.25 1.5625 14.0833 1 13.5 1H6.5C5.91667 1 4.75 1.5625 4.16667 2.125C3.58333 2.6875 3 3.8125 3 4.375ZM10 11.5C11.6569 11.5 13 10.1569 13 8.5C13 6.84315 11.6569 5.5 10 5.5C8.34315 5.5 7 6.84315 7 8.5C7 10.1569 8.34315 11.5 10 11.5ZM10 13C12.4853 13 14.5 10.9853 14.5 8.5C14.5 6.01472 12.4853 4 10 4C7.51472 4 5.5 6.01472 5.5 8.5C5.5 10.9853 7.51472 13 10 13ZM11 8.5C11 9.05229 10.5523 9.5 10 9.5C9.44772 9.5 9 9.05229 9 8.5C9 7.94772 9.44772 7.5 10 7.5C10.5523 7.5 11 7.94772 11 8.5Z" fill="#D7D7D7"/>
</svg>
