<svg width="20" height="20" viewBox="0 0 20 20" fill="none" xmlns="http://www.w3.org/2000/svg">
<path d="M10 1L10 19" stroke="#D7D7D7" stroke-width="2" stroke-linecap="round"/>
<path d="M10 5L8 3" stroke="#D7D7D7" stroke-width="2" stroke-linecap="round"/>
<path d="M10 5L12 3" stroke="#D7D7D7" stroke-width="2" stroke-linecap="round"/>
<path d="M10 15L12 17" stroke="#D7D7D7" stroke-width="2" stroke-linecap="round"/>
<path d="M10 15L8 17" stroke="#D7D7D7" stroke-width="2" stroke-linecap="round"/>
<path d="M17.7942 5.5L2.20573 14.5" stroke="#D7D7D7" stroke-width="2" stroke-linecap="round"/>
<path d="M14.3301 7.5L15.0621 4.76795" stroke="#D7D7D7" stroke-width="2" stroke-linecap="round"/>
<path d="M14.3301 7.5L17.0621 8.23205" stroke="#D7D7D7" stroke-width="2" stroke-linecap="round"/>
<path d="M5.66992 12.5L4.93787 15.2321" stroke="#D7D7D7" stroke-width="2" stroke-linecap="round"/>
<path d="M5.66992 12.5L2.93787 11.7679" stroke="#D7D7D7" stroke-width="2" stroke-linecap="round"/>
<path d="M17.5884 14.7321L1.99992 5.73205" stroke="#D7D7D7" stroke-width="2" stroke-linecap="round"/>
<path d="M14.1243 12.7321L16.8563 12" stroke="#D7D7D7" stroke-width="2" stroke-linecap="round"/>
<path d="M14.1243 12.7321L14.8563 15.4641" stroke="#D7D7D7" stroke-width="2" stroke-linecap="round"/>
<path d="M5.46411 7.73206L2.73206 8.46411" stroke="#D7D7D7" stroke-width="2" stroke-linecap="round"/>
<path d="M5.46411 7.73206L4.73206 5" stroke="#D7D7D7" stroke-width="2" stroke-linecap="round"/>
</svg>
